<svg width="24" height="26" viewBox="0 0 24 26" xmlns="http://www.w3.org/2000/svg">
<path fill-rule="evenodd" clip-rule="evenodd" d="M7.13977 5.78224C8.5112 4.60788 9.45473 3.80154 10.2507 3.2752L7.13977 5.78224ZM7.13977 5.78224L5.69502 7.02038C5.69495 7.02045 5.69509 7.02032 5.69502 7.02038C4.12223 8.36893 3.63549 8.8193 3.37395 9.38658C3.1138 9.95399 3.08817 10.6183 3.08817 12.6895V18.8162C3.08817 20.2129 3.09073 21.1388 3.18326 21.8266C3.2711 22.4796 3.4197 22.7353 3.58223 22.8979C3.74476 23.0604 4.00048 23.209 4.65346 23.2968C5.34129 23.3894 6.26722 23.3919 7.66389 23.3919H16.3337C17.7304 23.3919 18.6563 23.3894 19.3441 23.2968C19.9971 23.209 20.2528 23.0604 20.4154 22.8979C20.5779 22.7353 20.7265 22.4796 20.8143 21.8266C20.9069 21.1388 20.9094 20.2129 20.9094 18.8162V12.6881C20.9094 10.6155 20.8836 9.95265 20.6225 9.38583L20.6218 9.38432C20.3619 8.81796 19.8759 8.36925 18.3028 7.01913L16.8579 5.7809C16.8579 5.78086 16.858 5.78094 16.8579 5.7809C15.4875 4.60671 14.5437 3.80058 13.7478 3.27473C12.9801 2.76753 12.4751 2.60847 11.9988 2.60847C11.5229 2.60847 11.0185 2.76754 10.2507 3.2752M8.92246 1.26635C9.9013 0.61912 10.8708 0.200195 11.9988 0.200195C13.1264 0.200195 14.096 0.618406 15.0753 1.26537C16.0095 1.88257 17.064 2.78607 18.3549 3.89214L18.4248 3.95205L19.8699 5.1905C19.9376 5.2486 20.0051 5.30638 20.0709 5.3628C21.3692 6.4754 22.3039 7.27645 22.8102 8.379C23.3197 9.48552 23.3189 10.7206 23.3178 12.4431C23.3178 12.5237 23.3177 12.6053 23.3177 12.6881L23.3177 18.8983C23.3178 20.1908 23.3178 21.2803 23.2011 22.1477C23.0773 23.0683 22.8025 23.9165 22.1183 24.6008C21.434 25.285 20.5858 25.5598 19.6652 25.6836C18.7978 25.8003 17.7083 25.8002 16.4158 25.8002H7.58178C6.28927 25.8002 5.19979 25.8003 4.33237 25.6836C3.41177 25.5598 2.56354 25.285 1.87932 24.6008C1.1951 23.9165 0.920326 23.0683 0.796481 22.1477C0.679789 21.2803 0.679833 20.1908 0.679884 18.8983L0.679887 12.6895C0.679887 12.6069 0.679835 12.5253 0.679785 12.4449C0.678706 10.7217 0.677932 9.48726 1.18557 8.38121L1.18626 8.37969C1.69517 7.27491 2.63098 6.4736 3.93734 5.35499C3.99986 5.30145 4.06323 5.24719 4.12744 5.19213L5.57263 3.95361C5.60157 3.92883 5.63075 3.90383 5.65945 3.87926C6.94322 2.77988 7.99273 1.88111 8.92246 1.26635Z" fill="#D4D8F4"/>
<path fill-rule="evenodd" clip-rule="evenodd" d="M7.95852 15.4976C8.45533 15.0008 9.12914 14.7217 9.83172 14.7217H14.1666C14.8692 14.7217 15.543 15.0008 16.0398 15.4976C16.5366 15.9944 16.8157 16.6682 16.8157 17.3708V24.5956C16.8157 25.2607 16.2766 25.7998 15.6116 25.7998C14.9466 25.7998 14.4075 25.2607 14.4075 24.5956V17.3708C14.4075 17.3069 14.3821 17.2457 14.3369 17.2005C14.2918 17.1553 14.2305 17.13 14.1666 17.13H9.83172C9.76785 17.13 9.7066 17.1553 9.66143 17.2005C9.61627 17.2457 9.5909 17.3069 9.5909 17.3708V24.5956C9.5909 25.2607 9.05178 25.7998 8.38676 25.7998C7.72173 25.7998 7.18262 25.2607 7.18262 24.5956V17.3708C7.18262 16.6682 7.46172 15.9944 7.95852 15.4976Z" fill="#D4D8F4"/>
</svg>
