<svg width="20" height="20" viewBox="0 0 20 20" fill="none" xmlns="http://www.w3.org/2000/svg">
<path d="M9.1 14.5H10.9V9.1H9.1V14.5ZM9.99999 7.3C10.255 7.3 10.4689 7.2136 10.6417 7.0408C10.8145 6.868 10.9006 6.6544 10.9 6.4C10.8994 6.1456 10.813 5.932 10.6408 5.7592C10.4686 5.5864 10.255 5.5 9.99999 5.5C9.74499 5.5 9.5314 5.5864 9.3592 5.7592C9.187 5.932 9.1006 6.1456 9.1 6.4C9.0994 6.6544 9.1858 6.8683 9.3592 7.0417C9.5326 7.2151 9.74619 7.3012 9.99999 7.3ZM9.99999 19C8.755 19 7.585 18.7636 6.49 18.2908C5.395 17.818 4.4425 17.1769 3.6325 16.3675C2.8225 15.5581 2.1814 14.6056 1.7092 13.51C1.237 12.4144 1.0006 11.2444 1 10C0.999401 8.7556 1.2358 7.5856 1.7092 6.49C2.1826 5.3944 2.8237 4.4419 3.6325 3.6325C4.4413 2.8231 5.3938 2.182 6.49 1.7092C7.5862 1.2364 8.7562 1 9.99999 1C11.2438 1 12.4138 1.2364 13.51 1.7092C14.6062 2.182 15.5587 2.8231 16.3675 3.6325C17.1763 4.4419 17.8177 5.3944 18.2917 6.49C18.7657 7.5856 19.0018 8.7556 19 10C18.9982 11.2444 18.7618 12.4144 18.2908 13.51C17.8198 14.6056 17.1787 15.5581 16.3675 16.3675C15.5563 17.1769 14.6038 17.8183 13.51 18.2917C12.4162 18.7651 11.2462 19.0012 9.99999 19Z" fill="black"/>
</svg>
