<svg width="20" height="20" viewBox="0 0 20 20" fill="none" xmlns="http://www.w3.org/2000/svg">
<path d="M9.9963 0.399902C5.89822 0.399902 2.19043 3.54176 2.19043 8.40092C2.19043 11.5038 4.58098 15.153 9.35231 19.3584C9.72309 19.6804 10.2793 19.6804 10.65 19.3584C15.4116 15.153 17.8022 11.5038 17.8022 8.40092C17.8022 3.54176 14.0944 0.399902 9.9963 0.399902ZM9.9963 10.1572C8.92299 10.1572 8.04483 9.27908 8.04483 8.20577C8.04483 7.13247 8.92299 6.2543 9.9963 6.2543C11.0696 6.2543 11.9478 7.13247 11.9478 8.20577C11.9478 9.27908 11.0696 10.1572 9.9963 10.1572Z" fill="#0C031D"/>
</svg>
