<svg width="26" height="20" viewBox="0 0 26 20" fill="none" xmlns="http://www.w3.org/2000/svg">
<path fill-rule="evenodd" clip-rule="evenodd" d="M3.04464 4.30671C3.04464 3.52123 3.68139 2.88448 4.46686 2.88448H21.5335C22.319 2.88448 22.9557 3.52123 22.9557 4.30671V4.84994L13.6359 9.50987C13.4385 9.60852 13.2208 9.65987 13.0001 9.65987C12.7795 9.65987 12.5618 9.60852 12.3644 9.50987L3.04464 4.84999V4.30671ZM3.04464 8.03017V15.6845C3.04464 16.47 3.68139 17.1067 4.46686 17.1067H21.5335C22.319 17.1067 22.9557 16.47 22.9557 15.6845V8.03012L14.9076 12.0542C14.3154 12.3501 13.6622 12.5043 13.0001 12.5043C12.3381 12.5043 11.6849 12.3501 11.0926 12.0542L3.04464 8.03017ZM4.46686 0.0400391C2.11045 0.0400391 0.200195 1.95029 0.200195 4.30671V15.6845C0.200195 18.0409 2.11045 19.9512 4.46686 19.9512H21.5335C23.8899 19.9512 25.8002 18.0409 25.8002 15.6845V4.30671C25.8002 1.95029 23.8899 0.0400391 21.5335 0.0400391H4.46686Z" fill="#D4D8F4"/>
</svg>
