<svg width="20" height="20" viewBox="0 0 20 20" fill="none" xmlns="http://www.w3.org/2000/svg">
<path fill-rule="evenodd" clip-rule="evenodd" d="M1.33799 3.47764C0.400391 4.41417 0.400391 5.92351 0.400391 8.94004V11.0734C0.400391 14.0899 0.400391 15.5992 1.33799 16.5358C2.27452 17.4734 3.78386 17.4734 6.80039 17.4734H13.2004C16.2169 17.4734 17.7263 17.4734 18.6628 16.5358C19.6004 15.5992 19.6004 14.0899 19.6004 11.0734V8.94004C19.6004 5.92351 19.6004 4.41417 18.6628 3.47764C17.7263 2.54004 16.2169 2.54004 13.2004 2.54004H6.80039C3.78386 2.54004 2.27452 2.54004 1.33799 3.47764ZM4.19239 5.91924C3.95702 5.76223 3.66892 5.70515 3.39146 5.76057C3.11401 5.81598 2.86993 5.97933 2.71292 6.21471C2.55592 6.45008 2.49884 6.73818 2.55425 7.01563C2.60966 7.29309 2.77302 7.53716 3.00839 7.69417L8.81746 11.5662C9.16781 11.7996 9.57939 11.9242 10.0004 11.9242C10.4214 11.9242 10.833 11.7996 11.1833 11.5662L16.9924 7.69417C17.2278 7.53716 17.3911 7.29309 17.4465 7.01563C17.5019 6.73818 17.4449 6.45008 17.2879 6.21471C17.1308 5.97933 16.8868 5.81598 16.6093 5.76057C16.3319 5.70515 16.0438 5.76223 15.8084 5.91924L10.0004 9.79124L4.19239 5.91924Z" fill="#0C031D"/>
</svg>
