<svg width="20" height="20" viewBox="0 0 20 20" fill="none" xmlns="http://www.w3.org/2000/svg">
<path d="M4.23174 8.07139C4.23121 6.87373 4.60375 5.70565 5.2976 4.72945C5.99144 3.75324 6.97213 3.0174 8.10339 2.62417C8.05959 2.34971 8.07584 2.06901 8.15105 1.80143C8.22625 1.53386 8.35861 1.28579 8.53899 1.07434C8.71937 0.862881 8.94348 0.693077 9.19585 0.576639C9.44823 0.460201 9.72286 0.399902 10.0008 0.399902C10.2787 0.399902 10.5534 0.460201 10.8057 0.576639C11.0581 0.693077 11.2822 0.862881 11.4626 1.07434C11.643 1.28579 11.7753 1.53386 11.8505 1.80143C11.9257 2.06901 11.942 2.34971 11.8982 2.62417C13.0277 3.01902 14.0063 3.75555 14.6983 4.73161C15.3903 5.70768 15.7615 6.8749 15.7602 8.07139V13.8356L18.3637 15.5713C18.5378 15.6874 18.6424 15.8827 18.6424 16.092C18.6424 16.4376 18.3622 16.7178 18.0166 16.7178H1.9754C1.62979 16.7178 1.34961 16.4376 1.34961 16.092C1.34961 15.8827 1.45418 15.6874 1.62828 15.5713L4.23174 13.8356V8.07139ZM11.9174 17.6785C11.9174 18.1881 11.715 18.6768 11.3546 19.0371C10.9943 19.3975 10.5056 19.5999 9.99599 19.5999C9.4864 19.5999 8.99768 19.3975 8.63734 19.0371C8.27701 18.6768 8.07457 18.1881 8.07457 17.6785H11.9174Z" fill="#0C031D"/>
</svg>
