<svg width="20" height="20" viewBox="0 0 20 20" fill="none" xmlns="http://www.w3.org/2000/svg">
<g clip-path="url(#clip0_7_214)">
<path d="M10.0089 0.399902C10.7316 0.407779 11.4514 0.491474 12.1574 0.649017C12.3076 0.682544 12.4436 0.762155 12.5463 0.876726C12.649 0.991297 12.7134 1.1351 12.7305 1.28805L12.8978 2.7916C12.9215 3.00358 12.9945 3.20705 13.1112 3.38564C13.2278 3.56423 13.3847 3.71296 13.5692 3.81985C13.7538 3.92675 13.9609 3.98882 14.1738 4.00108C14.3868 4.01335 14.5996 3.97546 14.7953 3.89046L16.1738 3.28491C16.3138 3.22322 16.4696 3.20657 16.6195 3.23726C16.7694 3.26795 16.9061 3.34447 17.0107 3.45623C18.0074 4.52064 18.7498 5.79725 19.1818 7.19C19.227 7.33645 19.2255 7.49333 19.1775 7.63889C19.1295 7.78444 19.0374 7.91146 18.914 8.00233L17.6921 8.90426C17.5199 9.03046 17.3799 9.19545 17.2834 9.38585C17.1869 9.57625 17.1366 9.78671 17.1366 10.0002C17.1366 10.2136 17.1869 10.4241 17.2834 10.6145C17.3799 10.8049 17.5199 10.9699 17.6921 11.0961L18.916 11.997C19.0396 12.088 19.1318 12.2151 19.1798 12.3609C19.2278 12.5067 19.2292 12.6638 19.1838 12.8103C18.7519 14.2029 18.0099 15.4795 17.0137 16.5441C16.9093 16.6558 16.7728 16.7324 16.6231 16.7633C16.4734 16.7941 16.3177 16.7778 16.1777 16.7164L14.7933 16.1089C14.5979 16.0232 14.3851 15.9848 14.1721 15.9966C13.9592 16.0085 13.752 16.0703 13.5673 16.1771C13.3827 16.2839 13.2257 16.4327 13.1093 16.6114C12.9928 16.7901 12.92 16.9937 12.8969 17.2058L12.7295 18.7084C12.7128 18.8595 12.6498 19.0018 12.5492 19.1158C12.4485 19.2299 12.3151 19.31 12.1672 19.3454C10.741 19.6847 9.25511 19.6847 7.82891 19.3454C7.68082 19.3102 7.54722 19.2301 7.4464 19.1161C7.34558 19.002 7.28247 18.8596 7.26569 18.7084L7.09928 17.2078C7.07511 16.9964 7.00171 16.7936 6.88496 16.6157C6.76822 16.4378 6.61139 16.2898 6.42706 16.1835C6.24274 16.0772 6.03606 16.0156 5.82362 16.0037C5.61119 15.9918 5.39891 16.0298 5.20385 16.1148L3.81944 16.7213C3.67928 16.7829 3.52345 16.7994 3.37351 16.7685C3.22357 16.7377 3.08693 16.661 2.98249 16.549C1.9861 15.4832 1.24444 14.2052 0.813325 12.8113C0.767929 12.6647 0.769328 12.5076 0.817325 12.3619C0.865323 12.2161 0.957536 12.0889 1.08115 11.998L2.30506 11.0961C2.47722 10.9699 2.61723 10.8049 2.71373 10.6145C2.81024 10.4241 2.86053 10.2136 2.86053 10.0002C2.86053 9.78671 2.81024 9.57625 2.71373 9.38585C2.61723 9.19545 2.47722 9.03046 2.30506 8.90426L1.08115 8.0043C0.957536 7.91336 0.865323 7.78618 0.817325 7.64042C0.769328 7.49466 0.767929 7.33757 0.813325 7.19098C1.2454 5.79824 1.98774 4.52163 2.98446 3.45722C3.08902 3.34546 3.22571 3.26894 3.37565 3.23825C3.52558 3.20755 3.68135 3.2242 3.82141 3.28589L5.19991 3.89145C5.39587 3.97639 5.60903 4.01419 5.82225 4.00181C6.03547 3.98943 6.24282 3.92721 6.42763 3.82015C6.61245 3.7131 6.76957 3.56418 6.88639 3.38538C7.00321 3.20658 7.07647 3.00287 7.10027 2.79062L7.26766 1.28805C7.28455 1.1348 7.349 0.990672 7.45194 0.875893C7.55489 0.761113 7.69118 0.681435 7.8417 0.648032C8.5536 0.490699 9.27987 0.407545 10.0089 0.399902ZM9.99709 7.04624C9.21366 7.04624 8.46231 7.35746 7.90834 7.91143C7.35438 8.4654 7.04316 9.21674 7.04316 10.0002C7.04316 10.7836 7.35438 11.5349 7.90834 12.0889C8.46231 12.6429 9.21366 12.9541 9.99709 12.9541C10.7805 12.9541 11.5319 12.6429 12.0858 12.0889C12.6398 11.5349 12.951 10.7836 12.951 10.0002C12.951 9.21674 12.6398 8.4654 12.0858 7.91143C11.5319 7.35746 10.7805 7.04624 9.99709 7.04624Z" fill="#0C031D"/>
</g>
<defs>
<clipPath id="clip0_7_214">
<rect width="20" height="20" fill="white"/>
</clipPath>
</defs>
</svg>
