<svg width="26" height="26" viewBox="0 0 26 26" fill="none" xmlns="http://www.w3.org/2000/svg">
<path fill-rule="evenodd" clip-rule="evenodd" d="M1.40774 0.200195C2.07465 0.200195 2.61529 0.740833 2.61529 1.40774V22.0165C2.61529 22.3795 2.75948 22.7276 3.01613 22.9843C3.27278 23.2409 3.62088 23.3851 3.98384 23.3851H24.5926C25.2596 23.3851 25.8002 23.9257 25.8002 24.5926C25.8002 25.2596 25.2596 25.8002 24.5926 25.8002H3.98384C2.98036 25.8002 2.01797 25.4016 1.3084 24.692C0.598828 23.9824 0.200195 23.02 0.200195 22.0165V1.40774C0.200195 0.740833 0.740833 0.200195 1.40774 0.200195Z" fill="#D4D8F4"/>
<path fill-rule="evenodd" clip-rule="evenodd" d="M25.4467 6.99431C25.9182 7.46588 25.9182 8.23046 25.4467 8.70204L17.7184 16.4303C17.2468 16.9019 16.4822 16.9019 16.0106 16.4303L11.7123 12.132L7.41395 16.4303C6.94237 16.9019 6.1778 16.9019 5.70622 16.4303C5.23464 15.9588 5.23464 15.1942 5.70622 14.7226L10.8584 9.57041C11.33 9.09883 12.0946 9.09883 12.5662 9.57041L16.8645 13.8687L23.7389 6.99431C24.2105 6.52273 24.9751 6.52273 25.4467 6.99431Z" fill="#D4D8F4"/>
<path fill-rule="evenodd" clip-rule="evenodd" d="M19.5205 7.84817C19.5205 7.18126 20.0611 6.64062 20.7281 6.64062H24.5922C25.2591 6.64062 25.7998 7.18126 25.7998 7.84817V11.7123C25.7998 12.3792 25.2591 12.9199 24.5922 12.9199C23.9253 12.9199 23.3847 12.3792 23.3847 11.7123V9.05572H20.7281C20.0611 9.05572 19.5205 8.51508 19.5205 7.84817Z" fill="#D4D8F4"/>
</svg>
