<svg width="20" height="20" viewBox="0 0 20 20" fill="none" xmlns="http://www.w3.org/2000/svg">
<path fill-rule="evenodd" clip-rule="evenodd" d="M10.0004 4.24649C9.55915 4.24649 9.12223 4.3334 8.71457 4.50225C8.30692 4.67111 7.93652 4.91861 7.62451 5.23061C7.31251 5.54262 7.06501 5.91302 6.89616 6.32067C6.7273 6.72833 6.64039 7.16525 6.64039 7.60649C6.64039 8.04773 6.7273 8.48465 6.89616 8.89231C7.06501 9.29996 7.31251 9.67036 7.62451 9.98237C7.93652 10.2944 8.30692 10.5419 8.71457 10.7107C9.12223 10.8796 9.55915 10.9665 10.0004 10.9665C10.8915 10.9665 11.7461 10.6125 12.3763 9.98237C13.0064 9.35225 13.3604 8.49762 13.3604 7.60649C13.3604 6.71536 13.0064 5.86073 12.3763 5.23061C11.7461 4.60049 10.8915 4.24649 10.0004 4.24649ZM8.56039 11.9265C7.54196 11.9265 6.56524 12.3311 5.8451 13.0512C5.12496 13.7713 4.72039 14.7481 4.72039 15.7665C4.72039 16.8225 5.58439 17.6865 6.64039 17.6865H13.3604C13.8696 17.6865 14.358 17.4842 14.718 17.1241C15.0781 16.7641 15.2804 16.2757 15.2804 15.7665C15.2804 14.7481 14.8758 13.7713 14.1557 13.0512C13.4355 12.3311 12.4588 11.9265 11.4404 11.9265H8.56039ZM15.0884 8.95049C15.3968 7.78698 15.2985 6.55301 14.8096 5.45305C14.3207 4.3531 13.4707 3.4532 12.4004 2.90249C12.9764 2.51849 13.6484 2.32649 14.3204 2.32649C15.1395 2.33354 15.9278 2.63957 16.5371 3.18704C17.1464 3.73451 17.5348 4.48571 17.6291 5.29939C17.7234 6.11308 17.5173 6.9332 17.0494 7.60556C16.5815 8.27792 15.8842 8.75621 15.0884 8.95049ZM17.2004 15.7665H17.6804C18.1896 15.7665 18.678 15.5642 19.038 15.2041C19.3981 14.8441 19.6004 14.3557 19.6004 13.8465C19.6004 12.8281 19.1958 11.8513 18.4757 11.1312C17.7555 10.4111 16.7788 10.0065 15.7604 10.0065H14.7044L14.2244 10.7745C16.0484 11.7345 17.2004 13.6545 17.2004 15.7665ZM2.32039 5.68649C2.3155 5.0703 2.48015 4.46463 2.79634 3.93573C3.11252 3.40683 3.56807 2.97506 4.11315 2.68765C4.65823 2.40025 5.27185 2.26827 5.88689 2.30616C6.50193 2.34405 7.09471 2.55035 7.60039 2.90249C6.51005 3.45675 5.64596 4.37236 5.15571 5.49294C4.66546 6.61352 4.57945 7.86955 4.91239 9.04649C4.15977 8.87007 3.491 8.43953 3.01883 7.82746C2.54667 7.2154 2.29999 6.45924 2.32039 5.68649ZM5.29639 10.0065H4.24039C3.22196 10.0065 2.24524 10.4111 1.5251 11.1312C0.804961 11.8513 0.400391 12.8281 0.400391 13.8465C0.400391 14.9025 1.26439 15.7665 2.32039 15.7665H2.80039C2.79974 14.7548 3.06558 13.7607 3.57116 12.8844C4.07674 12.0081 4.80422 11.2803 5.68039 10.7745L5.29639 10.0065Z" fill="#0C031D"/>
</svg>
