<svg width="24" height="26" viewBox="0 0 24 26" fill="none" xmlns="http://www.w3.org/2000/svg">
<path d="M12.0005 2.7602C10.8123 2.7602 9.67279 3.23219 8.83263 4.07236C7.99247 4.91252 7.52047 6.05203 7.52047 7.2402C7.52047 8.42837 7.99247 9.56787 8.83263 10.408C9.67279 11.2482 10.8123 11.7202 12.0005 11.7202C13.1886 11.7202 14.3281 11.2482 15.1683 10.408C16.0085 9.56787 16.4805 8.42837 16.4805 7.2402C16.4805 6.05203 16.0085 4.91252 15.1683 4.07236C14.3281 3.23219 13.1886 2.7602 12.0005 2.7602ZM4.96047 7.2402C4.96047 5.37307 5.70218 3.58242 7.02244 2.26216C8.34269 0.941908 10.1333 0.200195 12.0005 0.200195C13.8676 0.200195 15.6582 0.941908 16.9785 2.26216C18.2988 3.58242 19.0405 5.37307 19.0405 7.2402C19.0405 9.10732 18.2988 10.898 16.9785 12.2182C15.6582 13.5385 13.8676 14.2802 12.0005 14.2802C10.1333 14.2802 8.34269 13.5385 7.02244 12.2182C5.70218 10.898 4.96047 9.10732 4.96047 7.2402ZM0.480469 21.9602C0.480469 20.2628 1.15475 18.6349 2.35499 17.4347C3.55522 16.2345 5.18308 15.5602 6.88047 15.5602H17.1205C18.8179 15.5602 20.4457 16.2345 21.646 17.4347C22.8462 18.6349 23.5205 20.2628 23.5205 21.9602V24.8002C23.5205 25.3525 23.0728 25.8002 22.5205 25.8002H1.48047C0.928184 25.8002 0.480469 25.3525 0.480469 24.8002V21.9602ZM6.88047 18.1202C5.86204 18.1202 4.88532 18.5248 4.16518 19.2449C3.44504 19.965 3.04047 20.9418 3.04047 21.9602V23.2402H20.9605V21.9602C20.9605 20.9418 20.5559 19.965 19.8358 19.2449C19.1156 18.5248 18.1389 18.1202 17.1205 18.1202H6.88047Z" fill="#D4D8F4"/>
</svg>
